M48
;Layer_Color=9474304
;FILE_FORMAT=2:4
INCH,TZ
;TYPE=PLATED
T1F00S00C0.0236
T2F00S00C0.0598
T3F00S00C0.0669
%
T01
X16776Y21034
X16696Y22190
X17877
X19058
X20239
X21420
X20901Y21034
X18838
X18468Y23371
X17286
X16105
X16696Y24552
X17877
X19058
X20239
X19649Y23371
X20830
X22011
X24373
X25554
X26735
X26145Y22190
X24964
X23783
X25026Y21034
X27326Y22190
Y24552
X26145
X24964
X25554Y25733
X26735
X26145Y26914
X24964
X24373Y28095
X23192
X22011
X20830
X19649
X18468
X17286
X16105
X16696Y26914
X17877
X19058
X20239
X19649Y25733
X18468
X17286
X16105
X20830
X25554Y28095
X26735
X27326Y26914
X15515
X14334
X13153
X11971
X11381Y25733
X12562
X13743
X14924
X14334Y24552
X13153
X11971
X11381Y23371
X12562
X13743
X14924
X14334Y22190
X13153
X11971
X12651Y21034
X14713
X15515Y22190
Y24552
X14924Y28095
X13743
X12562
X11381
X10588Y21034
T02
X23030Y25430
T03
X22030Y24430
X24030Y24430
Y26430
X22030
M30
