G04 Layer_Color=65535*
%FSLAX24Y24*%
%MOIN*%
G70*
G01*
G75*
%ADD20C,0.0079*%
%ADD21C,0.0100*%
D20*
X22863Y22201D02*
Y22359D01*
X23177Y22201D02*
Y22359D01*
X23271Y23397D02*
X23429D01*
X23271Y23083D02*
X23429D01*
X23271Y21487D02*
X23429D01*
X23271Y21173D02*
X23429D01*
D21*
X23080Y27560D02*
X22880D01*
X22980D01*
Y27060D01*
X22880Y26960D01*
X22780D01*
X22680Y27060D01*
X23280Y26960D02*
X23480D01*
X23380D01*
Y27560D01*
X23280Y27460D01*
X21780Y21980D02*
Y22580D01*
X22080D01*
X22180Y22480D01*
Y22280D01*
X22080Y22180D01*
X21780D01*
X21980D02*
X22180Y21980D01*
X22380D02*
X22580D01*
X22480D01*
Y22580D01*
X22380Y22480D01*
X11332Y11585D02*
Y11985D01*
X11532Y12185D01*
X11732Y11985D01*
Y11585D01*
Y11885D01*
X11332D01*
X11932Y11585D02*
X12132D01*
X12032D01*
Y12185D01*
X11932Y12085D01*
X24200Y22930D02*
Y23530D01*
X24500D01*
X24600Y23430D01*
Y23230D01*
X24500Y23130D01*
X24200D01*
X24400D02*
X24600Y22930D01*
X24800Y23430D02*
X24900Y23530D01*
X25100D01*
X25200Y23430D01*
Y23330D01*
X25100Y23230D01*
X25000D01*
X25100D01*
X25200Y23130D01*
Y23030D01*
X25100Y22930D01*
X24900D01*
X24800Y23030D01*
X24140Y21380D02*
Y21980D01*
X24440D01*
X24540Y21880D01*
Y21680D01*
X24440Y21580D01*
X24140D01*
X24340D02*
X24540Y21380D01*
X25140D02*
X24740D01*
X25140Y21780D01*
Y21880D01*
X25040Y21980D01*
X24840D01*
X24740Y21880D01*
M02*
