G04 Layer_Color=128*
%FSLAX24Y24*%
%MOIN*%
G70*
G01*
G75*
%ADD28C,0.0020*%
D28*
X21695Y24430D02*
X22365D01*
X22030Y24095D02*
Y24765D01*
X21695Y26430D02*
X22365D01*
X22030Y26095D02*
Y26765D01*
X23695Y26430D02*
X24365D01*
X24030Y26095D02*
Y26765D01*
X23695Y24430D02*
X24365D01*
X24030Y24095D02*
Y24765D01*
X22731Y25430D02*
X23329D01*
X23030Y25131D02*
Y25729D01*
X16658Y21034D02*
X16894D01*
X16776Y20916D02*
Y21152D01*
X14595Y21034D02*
X14831D01*
X14713Y20916D02*
Y21152D01*
X12533Y21034D02*
X12769D01*
X12651Y20916D02*
Y21152D01*
X18720Y21034D02*
X18956D01*
X18838Y20916D02*
Y21152D01*
X20783Y21034D02*
X21019D01*
X20901Y20916D02*
Y21152D01*
X24908Y21034D02*
X25144D01*
X25026Y20916D02*
Y21152D01*
X10470Y21034D02*
X10706D01*
X10588Y20916D02*
Y21152D01*
X11853Y22190D02*
X12090D01*
X11971Y22072D02*
Y22308D01*
X11263Y23371D02*
X11499D01*
X11381Y23253D02*
Y23489D01*
X11853Y24552D02*
X12090D01*
X11971Y24434D02*
Y24670D01*
X11263Y25733D02*
X11499D01*
X11381Y25615D02*
Y25851D01*
X11853Y26914D02*
X12090D01*
X11971Y26796D02*
Y27032D01*
X11263Y28095D02*
X11499D01*
X11381Y27977D02*
Y28213D01*
X13034Y22190D02*
X13271D01*
X13153Y22072D02*
Y22308D01*
X12444Y23371D02*
X12680D01*
X12562Y23253D02*
Y23489D01*
X13034Y24552D02*
X13271D01*
X13153Y24434D02*
Y24670D01*
X12444Y25733D02*
X12680D01*
X12562Y25615D02*
Y25851D01*
X13034Y26914D02*
X13271D01*
X13153Y26796D02*
Y27032D01*
X12444Y28095D02*
X12680D01*
X12562Y27977D02*
Y28213D01*
X14216Y22190D02*
X14452D01*
X14334Y22072D02*
Y22308D01*
X13625Y23371D02*
X13861D01*
X13743Y23253D02*
Y23489D01*
X14216Y24552D02*
X14452D01*
X14334Y24434D02*
Y24670D01*
X13625Y25733D02*
X13861D01*
X13743Y25615D02*
Y25851D01*
X14216Y26914D02*
X14452D01*
X14334Y26796D02*
Y27032D01*
X13625Y28095D02*
X13861D01*
X13743Y27977D02*
Y28213D01*
X15397Y22190D02*
X15633D01*
X15515Y22072D02*
Y22308D01*
X14806Y23371D02*
X15042D01*
X14924Y23253D02*
Y23489D01*
X15397Y24552D02*
X15633D01*
X15515Y24434D02*
Y24670D01*
X14806Y25733D02*
X15042D01*
X14924Y25615D02*
Y25851D01*
X15397Y26914D02*
X15633D01*
X15515Y26796D02*
Y27032D01*
X14806Y28095D02*
X15042D01*
X14924Y27977D02*
Y28213D01*
X16578Y22190D02*
X16814D01*
X16696Y22072D02*
Y22308D01*
X15987Y23371D02*
X16223D01*
X16105Y23253D02*
Y23489D01*
X16578Y24552D02*
X16814D01*
X16696Y24434D02*
Y24670D01*
X15987Y25733D02*
X16223D01*
X16105Y25615D02*
Y25851D01*
X16578Y26914D02*
X16814D01*
X16696Y26796D02*
Y27032D01*
X15987Y28095D02*
X16223D01*
X16105Y27977D02*
Y28213D01*
X17759Y22190D02*
X17995D01*
X17877Y22072D02*
Y22308D01*
X17168Y23371D02*
X17405D01*
X17286Y23253D02*
Y23489D01*
X17759Y24552D02*
X17995D01*
X17877Y24434D02*
Y24670D01*
X17168Y25733D02*
X17405D01*
X17286Y25615D02*
Y25851D01*
X17759Y26914D02*
X17995D01*
X17877Y26796D02*
Y27032D01*
X17168Y28095D02*
X17405D01*
X17286Y27977D02*
Y28213D01*
X18940Y22190D02*
X19176D01*
X19058Y22072D02*
Y22308D01*
X18349Y23371D02*
X18586D01*
X18468Y23253D02*
Y23489D01*
X18940Y24552D02*
X19176D01*
X19058Y24434D02*
Y24670D01*
X18349Y25733D02*
X18586D01*
X18468Y25615D02*
Y25851D01*
X18940Y26914D02*
X19176D01*
X19058Y26796D02*
Y27032D01*
X18349Y28095D02*
X18586D01*
X18468Y27977D02*
Y28213D01*
X20121Y22190D02*
X20357D01*
X20239Y22072D02*
Y22308D01*
X19531Y23371D02*
X19767D01*
X19649Y23253D02*
Y23489D01*
X20121Y24552D02*
X20357D01*
X20239Y24434D02*
Y24670D01*
X19531Y25733D02*
X19767D01*
X19649Y25615D02*
Y25851D01*
X20121Y26914D02*
X20357D01*
X20239Y26796D02*
Y27032D01*
X19531Y28095D02*
X19767D01*
X19649Y27977D02*
Y28213D01*
X21302Y22190D02*
X21538D01*
X21420Y22072D02*
Y22308D01*
X20712Y23371D02*
X20948D01*
X20830Y23253D02*
Y23489D01*
X20712Y25733D02*
X20948D01*
X20830Y25615D02*
Y25851D01*
X20712Y28095D02*
X20948D01*
X20830Y27977D02*
Y28213D01*
X21893Y23371D02*
X22129D01*
X22011Y23253D02*
Y23489D01*
X21893Y28095D02*
X22129D01*
X22011Y27977D02*
Y28213D01*
X23664Y22190D02*
X23901D01*
X23783Y22072D02*
Y22308D01*
X23074Y28095D02*
X23310D01*
X23192Y27977D02*
Y28213D01*
X24845Y22190D02*
X25082D01*
X24964Y22072D02*
Y22308D01*
X24255Y23371D02*
X24491D01*
X24373Y23253D02*
Y23489D01*
X24845Y24552D02*
X25082D01*
X24964Y24434D02*
Y24670D01*
X24845Y26914D02*
X25082D01*
X24964Y26796D02*
Y27032D01*
X24255Y28095D02*
X24491D01*
X24373Y27977D02*
Y28213D01*
X26027Y22190D02*
X26263D01*
X26145Y22072D02*
Y22308D01*
X25436Y23371D02*
X25672D01*
X25554Y23253D02*
Y23489D01*
X26027Y24552D02*
X26263D01*
X26145Y24434D02*
Y24670D01*
X25436Y25733D02*
X25672D01*
X25554Y25615D02*
Y25851D01*
X26027Y26914D02*
X26263D01*
X26145Y26796D02*
Y27032D01*
X25436Y28095D02*
X25672D01*
X25554Y27977D02*
Y28213D01*
X27208Y22190D02*
X27444D01*
X27326Y22072D02*
Y22308D01*
X26617Y23371D02*
X26853D01*
X26735Y23253D02*
Y23489D01*
X27208Y24552D02*
X27444D01*
X27326Y24434D02*
Y24670D01*
X26617Y25733D02*
X26853D01*
X26735Y25615D02*
Y25851D01*
X27208Y26914D02*
X27444D01*
X27326Y26796D02*
Y27032D01*
X26617Y28095D02*
X26853D01*
X26735Y27977D02*
Y28213D01*
M02*
