G04 Layer_Color=2752767*
%FSLAX24Y24*%
%MOIN*%
G70*
G01*
G75*
%ADD21C,0.0100*%
%ADD28C,0.0020*%
%ADD29C,0.0027*%
D21*
X10000Y28990D02*
X27820D01*
X10000Y10000D02*
X27800D01*
X27820Y10020D02*
Y28990D01*
X27800Y10000D02*
X27820Y10020D01*
X10000Y10000D02*
Y28990D01*
D28*
X21950Y24350D02*
Y24510D01*
X22110D01*
Y24350D01*
X21950D01*
X21950Y26350D02*
Y26510D01*
X22110D01*
Y26350D01*
X21950D01*
X23950D02*
Y26510D01*
X24110D01*
Y26350D01*
X23950D01*
Y24350D02*
Y24510D01*
X24110D01*
Y24350D01*
X23950D01*
X16776Y20954D02*
X16696Y21114D01*
X16856D01*
X16776Y20954D01*
X14713D02*
X14633Y21114D01*
X14793D01*
X14713Y20954D01*
X12651D02*
X12571Y21114D01*
X12731D01*
X12651Y20954D01*
X18838D02*
X18758Y21114D01*
X18918D01*
X18838Y20954D01*
X20901D02*
X20821Y21114D01*
X20981D01*
X20901Y20954D01*
X25026D02*
X24946Y21114D01*
X25106D01*
X25026Y20954D01*
X10588D02*
X10508Y21114D01*
X10668D01*
X10588Y20954D01*
X11971Y22110D02*
X11891Y22270D01*
X12051D01*
X11971Y22110D01*
X11381Y23291D02*
X11301Y23451D01*
X11461D01*
X11381Y23291D01*
X11971Y24472D02*
X11891Y24632D01*
X12051D01*
X11971Y24472D01*
X11381Y25653D02*
X11301Y25813D01*
X11461D01*
X11381Y25653D01*
X11971Y26834D02*
X11891Y26994D01*
X12051D01*
X11971Y26834D01*
X11381Y28015D02*
X11301Y28175D01*
X11461D01*
X11381Y28015D01*
X13153Y22110D02*
X13073Y22270D01*
X13233D01*
X13153Y22110D01*
X12562Y23291D02*
X12482Y23451D01*
X12642D01*
X12562Y23291D01*
X13153Y24472D02*
X13073Y24632D01*
X13233D01*
X13153Y24472D01*
X12562Y25653D02*
X12482Y25813D01*
X12642D01*
X12562Y25653D01*
X13153Y26834D02*
X13073Y26994D01*
X13233D01*
X13153Y26834D01*
X12562Y28015D02*
X12482Y28175D01*
X12642D01*
X12562Y28015D01*
X14334Y22110D02*
X14254Y22270D01*
X14414D01*
X14334Y22110D01*
X13743Y23291D02*
X13663Y23451D01*
X13823D01*
X13743Y23291D01*
X14334Y24472D02*
X14254Y24632D01*
X14414D01*
X14334Y24472D01*
X13743Y25653D02*
X13663Y25813D01*
X13823D01*
X13743Y25653D01*
X14334Y26834D02*
X14254Y26994D01*
X14414D01*
X14334Y26834D01*
X13743Y28015D02*
X13663Y28175D01*
X13823D01*
X13743Y28015D01*
X15515Y22110D02*
X15435Y22270D01*
X15595D01*
X15515Y22110D01*
X14924Y23291D02*
X14844Y23451D01*
X15004D01*
X14924Y23291D01*
X15515Y24472D02*
X15435Y24632D01*
X15595D01*
X15515Y24472D01*
X14924Y25653D02*
X14844Y25813D01*
X15004D01*
X14924Y25653D01*
X15515Y26834D02*
X15435Y26994D01*
X15595D01*
X15515Y26834D01*
X14924Y28015D02*
X14844Y28175D01*
X15004D01*
X14924Y28015D01*
X16696Y22110D02*
X16616Y22270D01*
X16776D01*
X16696Y22110D01*
X16105Y23291D02*
X16025Y23451D01*
X16185D01*
X16105Y23291D01*
X16696Y24472D02*
X16616Y24632D01*
X16776D01*
X16696Y24472D01*
X16105Y25653D02*
X16025Y25813D01*
X16185D01*
X16105Y25653D01*
X16696Y26834D02*
X16616Y26994D01*
X16776D01*
X16696Y26834D01*
X16105Y28015D02*
X16025Y28175D01*
X16185D01*
X16105Y28015D01*
X17877Y22110D02*
X17797Y22270D01*
X17957D01*
X17877Y22110D01*
X17286Y23291D02*
X17206Y23451D01*
X17366D01*
X17286Y23291D01*
X17877Y24472D02*
X17797Y24632D01*
X17957D01*
X17877Y24472D01*
X17286Y25653D02*
X17206Y25813D01*
X17366D01*
X17286Y25653D01*
X17877Y26834D02*
X17797Y26994D01*
X17957D01*
X17877Y26834D01*
X17286Y28015D02*
X17206Y28175D01*
X17366D01*
X17286Y28015D01*
X19058Y22110D02*
X18978Y22270D01*
X19138D01*
X19058Y22110D01*
X18468Y23291D02*
X18388Y23451D01*
X18548D01*
X18468Y23291D01*
X19058Y24472D02*
X18978Y24632D01*
X19138D01*
X19058Y24472D01*
X18468Y25653D02*
X18388Y25813D01*
X18548D01*
X18468Y25653D01*
X19058Y26834D02*
X18978Y26994D01*
X19138D01*
X19058Y26834D01*
X18468Y28015D02*
X18388Y28175D01*
X18548D01*
X18468Y28015D01*
X20239Y22110D02*
X20159Y22270D01*
X20319D01*
X20239Y22110D01*
X19649Y23291D02*
X19569Y23451D01*
X19729D01*
X19649Y23291D01*
X20239Y24472D02*
X20159Y24632D01*
X20319D01*
X20239Y24472D01*
X19649Y25653D02*
X19569Y25813D01*
X19729D01*
X19649Y25653D01*
X20239Y26834D02*
X20159Y26994D01*
X20319D01*
X20239Y26834D01*
X19649Y28015D02*
X19569Y28175D01*
X19729D01*
X19649Y28015D01*
X21420Y22110D02*
X21340Y22270D01*
X21500D01*
X21420Y22110D01*
X20830Y23291D02*
X20750Y23451D01*
X20910D01*
X20830Y23291D01*
Y25653D02*
X20750Y25813D01*
X20910D01*
X20830Y25653D01*
Y28015D02*
X20750Y28175D01*
X20910D01*
X20830Y28015D01*
X22011Y23291D02*
X21931Y23451D01*
X22091D01*
X22011Y23291D01*
Y28015D02*
X21931Y28175D01*
X22091D01*
X22011Y28015D01*
X23783Y22110D02*
X23703Y22270D01*
X23863D01*
X23783Y22110D01*
X23192Y28015D02*
X23112Y28175D01*
X23272D01*
X23192Y28015D01*
X24964Y22110D02*
X24884Y22270D01*
X25044D01*
X24964Y22110D01*
X24373Y23291D02*
X24293Y23451D01*
X24453D01*
X24373Y23291D01*
X24964Y24472D02*
X24884Y24632D01*
X25044D01*
X24964Y24472D01*
Y26834D02*
X24884Y26994D01*
X25044D01*
X24964Y26834D01*
X24373Y28015D02*
X24293Y28175D01*
X24453D01*
X24373Y28015D01*
X26145Y22110D02*
X26065Y22270D01*
X26225D01*
X26145Y22110D01*
X25554Y23291D02*
X25474Y23451D01*
X25634D01*
X25554Y23291D01*
X26145Y24472D02*
X26065Y24632D01*
X26225D01*
X26145Y24472D01*
X25554Y25653D02*
X25474Y25813D01*
X25634D01*
X25554Y25653D01*
X26145Y26834D02*
X26065Y26994D01*
X26225D01*
X26145Y26834D01*
X25554Y28015D02*
X25474Y28175D01*
X25634D01*
X25554Y28015D01*
X27326Y22110D02*
X27246Y22270D01*
X27406D01*
X27326Y22110D01*
X26735Y23291D02*
X26655Y23451D01*
X26815D01*
X26735Y23291D01*
X27326Y24472D02*
X27246Y24632D01*
X27406D01*
X27326Y24472D01*
X26735Y25653D02*
X26655Y25813D01*
X26815D01*
X26735Y25653D01*
X27326Y26834D02*
X27246Y26994D01*
X27406D01*
X27326Y26834D01*
X26735Y28015D02*
X26655Y28175D01*
X26815D01*
X26735Y28015D01*
D29*
X23110Y25430D02*
G03*
X23110Y25430I-80J0D01*
G01*
M02*
